<svg xmlns="http://www.w3.org/2000/svg" xmlns:xlink="http://www.w3.org/1999/xlink" width="23" height="29" viewBox="0 0 23 29">
    <defs>
        <path id="a" d="M0 0h339.77v444.627H0z"/>
    </defs>
    <g fill="none" fill-rule="evenodd">
        <path fill="#F9F7F3" d="M-319-502H76v610h-395z"/>
        <g transform="translate(-294 -394)">
            <mask id="b" fill="#fff">
                <use xlink:href="#a"/>
            </mask>
            <use fill="#FFF" xlink:href="#a"/>
            <g fill="#D0021B" fill-rule="nonzero" mask="url(#b)">
                <path d="M316.718 400.094l-.394-.386-5.158-5.047-.394-.385a.965.965 0 0 0-.68-.276H295.26c-.695 0-1.259.552-1.259 1.232v26.536c0 .68.564 1.232 1.259 1.232h20.482c.694 0 1.259-.552 1.259-1.232v-21.01c0-.251-.1-.487-.282-.664zm-1.54-.094h-4.311v-4.218l4.31 4.218zm.8 21.768a.235.235 0 0 1-.237.232H295.26a.235.235 0 0 1-.237-.232V414.5h20.956v7.268zm-20.956-8.268v-18.268c0-.128.107-.232.237-.232h14.615a.755.755 0 0 0-.03.196V401h5.933a.81.81 0 0 0 .2-.029V413.5h-20.955z"/>
                <path d="M300 420c1.103 0 2-.897 2-2s-.897-2-2-2-2 .897-2 2 .897 2 2 2zm0-3a1.001 1.001 0 0 1 0 2 1.001 1.001 0 0 1 0-2zM306 420c1.103 0 2-.897 2-2s-.897-2-2-2-2 .897-2 2 .897 2 2 2zm0-3a1.001 1.001 0 0 1 0 2 1.001 1.001 0 0 1 0-2zM311 420c1.103 0 2-.897 2-2s-.897-2-2-2-2 .897-2 2 .897 2 2 2zm0-3a1.001 1.001 0 0 1 0 2 1.001 1.001 0 0 1 0-2z"/>
            </g>
        </g>
    </g>
</svg>
