<svg xmlns="http://www.w3.org/2000/svg" xmlns:xlink="http://www.w3.org/1999/xlink" width="27" height="28" viewBox="0 0 27 28">
    <defs>
        <path id="a" d="M0 0h339.77v444.627H0z"/>
    </defs>
    <g fill="none" fill-rule="evenodd">
        <path fill="#F9F7F3" d="M-314-504H81v610h-395z"/>
        <g transform="translate(-289 -396)">
            <mask id="b" fill="#fff">
                <use xlink:href="#a"/>
            </mask>
            <use fill="#FFF" xlink:href="#a"/>
            <g fill="#D6051D" fill-rule="nonzero" mask="url(#b)">
                <path d="M314.312 421.84a.427.427 0 0 1-.422.432.427.427 0 0 1-.422-.432v-14.25h-8.858a.419.419 0 0 1-.319-.148l-1.543-1.578h-12.904v17.272h25.312v-14.25c0-.238.19-.431.422-.431.233 0 .422.194.422.431v14.682a.428.428 0 0 1-.422.432h-26.156a.427.427 0 0 1-.422-.432v-18.136c0-.239.189-.432.422-.432h13.499v.002c.107 0 .214.042.296.125l1.565 1.6h9.107c.233 0 .422.195.422.432v14.681h.001z"/>
                <path d="M290.85 403.727c0 .251-.19.455-.425.455s-.425-.204-.425-.455v-7.272c0-.251.19-.455.425-.455H306.575c.235 0 .425.204.425.455v9.09c0 .251-.19.455-.425.455s-.425-.204-.425-.455v-8.636h-15.3v6.818z"/>
                <path d="M293.417 400c-.23 0-.417-.224-.417-.5s.187-.5.417-.5h9.166c.23 0 .417.225.417.5 0 .276-.187.5-.417.5h-9.166zM311.5 399.875c-.276 0-.5-.196-.5-.437 0-.242.224-.438.5-.438h2c.276 0 .5.197.5.438V405.562c0 .242-.224.438-.5.438s-.5-.196-.5-.438v-5.687h-1.5zM293.417 403c-.23 0-.417-.224-.417-.5s.187-.5.417-.5h9.166c.23 0 .417.224.417.5s-.187.5-.417.5h-9.166zM308.5 397.89c-.276 0-.5-.2-.5-.445 0-.246.224-.445.5-.445h2c.275 0 .5.2.5.445V404.555c0 .246-.224.445-.5.445-.275 0-.5-.2-.5-.445v-6.666h-1.5z"/>
            </g>
        </g>
    </g>
</svg>
