<svg xmlns="http://www.w3.org/2000/svg" viewBox="0 0 34.46 33.99"><defs><style>.cls-1{fill:#d0021b;}</style></defs><title>search-icon</title><g id="Capa_2" data-name="Capa 2"><g id="Capa_1-2" data-name="Capa 1"><g id="Desktop"><g id="Home"><g id="Menu-superior"><g id="Search"><path class="cls-1" d="M22.26,23.36,33.13,33.77a.82.82,0,0,0,1.09,0,.71.71,0,0,0,.23-.51.74.74,0,0,0-.22-.53L23.42,22.36l.35-.36a12.78,12.78,0,0,0,3.65-8.89C27.42,5.88,21.27,0,13.71,0S0,5.88,0,13.11,6.15,26.22,13.71,26.22a14,14,0,0,0,8.22-2.62Zm-8.55,1.39A11.91,11.91,0,0,1,1.57,13.11,11.91,11.91,0,0,1,13.71,1.46,11.91,11.91,0,0,1,25.85,13.11,11.91,11.91,0,0,1,13.71,24.76Z"/></g></g></g></g></g></g></svg>