<svg xmlns="http://www.w3.org/2000/svg" viewBox="0 0 34.35 23.64"><defs><style>.cls-1{fill:#d0021b;}</style></defs><title>usuario-icon</title><g id="Capa_2" data-name="Capa 2"><g id="Capa_1-2" data-name="Capa 1"><g id="Desktop"><g id="Home"><g id="Menu-superior"><g id="Usuario"><g id="Oval-1-_-Oval-1-Copy" data-name="Oval-1-+-Oval-1-Copy"><g id="Group-2"><path class="cls-1" d="M9.43,0A2.39,2.39,0,0,0,7.18,2.5,2.39,2.39,0,0,0,9.43,5a2.39,2.39,0,0,0,2.25-2.5A2.39,2.39,0,0,0,9.43,0Z"/><path class="cls-1" d="M25.93,0a2.39,2.39,0,0,0-2.25,2.5A2.39,2.39,0,0,0,25.93,5a2.39,2.39,0,0,0,2.25-2.5A2.39,2.39,0,0,0,25.93,0Z"/><path class="cls-1" d="M17.18,23.64A19.14,19.14,0,0,1,0,12.82l1.35-.65a17.55,17.55,0,0,0,31.65,0l1.35.65A19.13,19.13,0,0,1,17.18,23.64Z"/></g></g></g></g></g></g></g></g></svg>